<?xml version="1.0" encoding="UTF-8" standalone="no"?><!-- Generator: Gravit.io --><svg xmlns="http://www.w3.org/2000/svg" xmlns:xlink="http://www.w3.org/1999/xlink" style="isolation:isolate" viewBox="0 0 16 16" width="16pt" height="16pt"><defs><clipPath id="_clipPath_9Y8ROZ3Yldv7QwBqQsxNdK8tn8uYAy5D"><rect width="16" height="16"/></clipPath></defs><g clip-path="url(#_clipPath_9Y8ROZ3Yldv7QwBqQsxNdK8tn8uYAy5D)"><path d="M 1.945 3 L 14.055 3 C 14.577 3 15 3.423 15 3.945 L 15 11.055 C 15 11.577 14.577 12 14.055 12 L 1.945 12 C 1.423 12 1 11.577 1 11.055 L 1 3.945 C 1 3.423 1.423 3 1.945 3 Z" style="stroke:none;fill:#D4EDDA;stroke-miterlimit:10;"/><path d=" M 2 5 L 8 5 L 8 6 L 2 6 L 2 5 Z " fill="rgb(187,187,187)"/><path d=" M 2 7 L 14 7 L 14 8 L 2 8 L 2 7 Z " fill="rgb(187,187,187)"/><path d=" M 2 9 L 14 9 L 14 10 L 2 10 L 2 9 Z " fill="rgb(187,187,187)"/></g></svg>