<?xml version="1.0" encoding="UTF-8" standalone="no"?><!-- Generator: Gravit.io --><svg xmlns="http://www.w3.org/2000/svg" xmlns:xlink="http://www.w3.org/1999/xlink" style="isolation:isolate" viewBox="0 0 16 16" width="16pt" height="16pt"><defs><clipPath id="_clipPath_gckbFeuOj5S2WvoLQIQwzM47SD55Ngfr"><rect width="16" height="16"/></clipPath></defs><g clip-path="url(#_clipPath_gckbFeuOj5S2WvoLQIQwzM47SD55Ngfr)"><path d="M 2.813 1 L 13.187 1 C 14.188 1 15 1.812 15 2.813 L 15 5.187 C 15 6.188 14.188 7 13.187 7 L 2.813 7 C 1.812 7 1 6.188 1 5.187 L 1 2.813 C 1 1.812 1.812 1 2.813 1 Z" style="stroke:none;fill:#666666;stroke-miterlimit:10;"/><path d=" M 3 3 L 9 3 L 9 5 L 3 5 L 3 3 Z " fill="rgb(187,187,187)"/><path d=" M 11 3 L 13 3 L 13 5 L 11 5 L 11 3 Z " fill="rgb(187,187,187)"/><path d="M 2.813 9 L 13.187 9 C 14.188 9 15 9.812 15 10.813 L 15 13.187 C 15 14.188 14.188 15 13.187 15 L 2.813 15 C 1.812 15 1 14.188 1 13.187 L 1 10.813 C 1 9.812 1.812 9 2.813 9 Z" style="stroke:none;fill:#34B05D;stroke-miterlimit:10;"/><path d=" M 3 11 L 7 11 L 7 13 L 3 13 L 3 11 Z " fill="rgb(187,187,187)"/><path d=" M 9 11 L 13 11 L 13 13 L 9 13 L 9 11 Z " fill="rgb(187,187,187)"/></g></svg>