<?xml version="1.0" encoding="UTF-8" standalone="no"?><!-- Generator: Gravit.io --><svg xmlns="http://www.w3.org/2000/svg" xmlns:xlink="http://www.w3.org/1999/xlink" style="isolation:isolate" viewBox="0 0 16 16" width="16pt" height="16pt"><defs><clipPath id="_clipPath_mWd2PhMWE3JijVcIz1209NCLjKihLjBn"><rect width="16" height="16"/></clipPath></defs><g clip-path="url(#_clipPath_mWd2PhMWE3JijVcIz1209NCLjKihLjBn)"><path d=" M 2 2 L 14 2 L 14 14 L 2 14 L 2 2 Z " fill="rgb(255,255,255)"/><path d=" M 14 2 L 14 14 L 2 14 L 2 2 L 14 2 Z  M 15 1 L 1 1 L 1 15 L 15 15 L 15 1 Z " fill="rgb(102,102,102)"/><path d=" M 2 2 L 14 2 L 14 7 L 2 7 L 2 2 Z " fill="rgb(85,153,255)"/><g><path d=" M 8.709 6.417 L 6.022 6.417 L 6.738 5.603 L 7.455 4.788 L 8.171 5.603 L 8.709 6.417 Z " fill="rgb(255,255,255)"/><path d=" M 9.604 6.417 L 7.186 6.417 L 7.813 5.847 L 8.44 5.277 L 9.067 5.847 L 9.604 6.417 Z " fill="rgb(255,255,255)"/><ellipse vector-effect="non-scaling-stroke" cx="9.156548431105048" cy="4.380172805820824" rx="0.4478171896316514" ry="0.40745793542519326" fill="rgb(255,255,255)"/></g><path d=" M 3 8 L 8 8 L 8 9 L 3 9 L 3 8 Z " fill="rgb(102,102,102)"/><path d=" M 3 9.801 L 13 9.801 L 13 10.652 L 3 10.652 L 3 9.801 Z " fill="rgb(204,204,204)"/><path d=" M 3 11.154 L 13 11.154 L 13 12 L 3 12 L 3 11.154 Z " fill="rgb(204,204,204)"/><path d=" M 2 2 L 14 2 L 14 3.405 L 2 3.405 L 2 2 Z " fill="rgb(57,57,57)"/><path d=" M 2 12.617 L 14 12.617 L 14 14 L 2 14 L 2 12.617 Z " fill="rgb(68,68,68)"/></g></svg>