<?xml version="1.0" encoding="UTF-8" standalone="no"?><!-- Generator: Gravit.io --><svg xmlns="http://www.w3.org/2000/svg" xmlns:xlink="http://www.w3.org/1999/xlink" style="isolation:isolate" viewBox="0 0 16 16" width="16pt" height="16pt"><defs><clipPath id="_clipPath_BBpkAFnOyIq7dJsfLSbmuQTioQBpY3qc"><rect width="16" height="16"/></clipPath></defs><g clip-path="url(#_clipPath_BBpkAFnOyIq7dJsfLSbmuQTioQBpY3qc)"><path d=" M 15 1 L 15 14 L 1 14 L 1 1 L 15 1 Z  M 16 0 L 0 0 L 0 15 L 16 15 L 16 0 Z " fill="rgb(202,200,200)"/><rect x="1" y="1" width="14" height="13" transform="matrix(1,0,0,1,0,0)" fill="rgb(202,200,200)"/><g><path d=" M 1.747 2 L 6.972 2 L 6.972 14 L 1.747 14 L 1.747 2 Z " fill="rgb(255,255,255)"/><path d=" M 6.491 2 L 6.491 13 L 1.915 13 L 1.915 2 L 6.491 2 Z  M 7.406 1 L 1 1 L 1 14 L 7.406 14 L 7.406 1 Z " fill="rgb(102,102,102)"/><path d=" M 2.702 7 L 5.771 7 L 5.771 8 L 2.702 8 L 2.702 7 Z " fill="rgb(204,204,204)"/><path d=" M 2.702 5 L 5.771 5 L 5.771 6 L 2.702 6 L 2.702 5 Z " fill="rgb(204,204,204)"/><path d=" M 2.702 3 L 5.771 3 L 5.771 4 L 2.702 4 L 2.702 3 Z " fill="rgb(204,204,204)"/><path d=" M 2.702 9 L 5.771 9 L 5.771 10 L 2.702 10 L 2.702 9 Z " fill="rgb(204,204,204)"/><path d=" M 2.702 11 L 5.771 11 L 5.771 12 L 2.702 12 L 2.702 11 Z " fill="rgb(204,204,204)"/></g><g><path d=" M 9 2 L 14.3 2 L 14.3 13 L 9 13 L 9 2 Z " fill="rgb(255,255,255)"/><path d=" M 14.058 2 L 14.058 13 L 9.348 13 L 9.348 2 L 14.058 2 Z  M 15 1 L 8.406 1 L 8.406 14 L 15 14 L 15 1 Z " fill="rgb(102,102,102)"/><path d=" M 10.156 7 L 13.281 7 L 13.281 8 L 10.156 8 L 10.156 7 Z " fill="rgb(204,204,204)"/><path d=" M 10.156 5 L 13.281 5 L 13.281 6 L 10.156 6 L 10.156 5 Z " fill="rgb(204,204,204)"/><path d=" M 10.156 3 L 13.281 3 L 13.281 4 L 10.156 4 L 10.156 3 Z " fill="rgb(204,204,204)"/><path d=" M 10.156 9 L 13.281 9 L 13.281 10 L 10.156 10 L 10.156 9 Z " fill="rgb(204,204,204)"/><path d=" M 10.156 11 L 13.281 11 L 13.281 12 L 10.156 12 L 10.156 11 Z " fill="rgb(204,204,204)"/></g></g></svg>